<svg viewBox="0 0 200 200" xmlns="http://www.w3.org/2000/svg" height="px" width="px">
  <path fill="#ff7433" d="M32.5,-54.4C42.5,-44.2,51,-35.7,60,-24.8C69.1,-13.9,78.5,-0.6,77.9,11.9C77.2,24.5,66.5,36.4,56,48.7C45.6,61,35.5,73.8,22.1,80C8.6,86.2,-8.2,85.8,-22.1,79.7C-35.9,73.6,-46.8,61.7,-49,48.4C-51.3,35.1,-45.1,20.4,-45.2,7.6C-45.2,-5.1,-51.7,-15.9,-52.8,-28.5C-53.9,-41.2,-49.6,-55.9,-39.9,-66.2C-30.2,-76.4,-15.1,-82.3,-1.9,-79.3C11.3,-76.3,22.6,-64.5,32.5,-54.4Z" transform="translate(100 100)" data-originalfillcolor="#FF5200"></path>
</svg>